<?xml version="1.0" standalone="no"?>
<!DOCTYPE svg PUBLIC "-//W3C//DTD SVG 20010904//EN"
 "http://www.w3.org/TR/2001/REC-SVG-20010904/DTD/svg10.dtd">
<svg version="1.0" xmlns="http://www.w3.org/2000/svg"
 width="1207.000000pt" height="561.000000pt" viewBox="0 0 1207.000000 561.000000"
 preserveAspectRatio="xMidYMid meet">

<g transform="translate(0.000000,561.000000) scale(0.100000,-0.100000)"
fill="#000000" stroke="none">
<path d="M770 2715 l0 -1855 2955 0 2955 0 0 1855 0 1855 -2955 0 -2955 0 0
-1855z m2465 1128 c159 -54 204 -245 85 -363 -35 -36 -58 -50 -99 -60 -62 -15
-155 -9 -197 13 -105 54 -153 188 -105 292 51 109 190 162 316 118z m2295
-677 c5 -636 6 -687 21 -670 15 17 271 404 377 569 25 39 50 73 56 77 17 12
486 10 486 -2 0 -6 -112 -155 -248 -333 -137 -177 -253 -330 -259 -341 -9 -16
13 -50 139 -220 81 -110 209 -283 283 -383 l135 -183 -255 0 -254 0 -137 208
c-75 114 -182 276 -238 361 l-101 154 -3 -362 -2 -361 -215 0 -215 0 0 1083
c0 596 3 1087 7 1091 4 3 99 5 212 4 l206 -3 5 -689z m-3472 584 c277 -30 451
-131 541 -313 56 -114 75 -218 68 -371 -4 -94 -10 -137 -30 -194 -51 -147
-143 -261 -281 -347 -147 -91 -296 -125 -553 -125 l-153 0 0 -360 0 -360 -212
2 -213 3 -3 1024 c-1 748 1 1027 9 1037 9 11 80 14 371 14 197 0 402 -5 456
-10z m2593 -586 c45 -8 98 -23 118 -32 l36 -17 3 -178 c1 -97 0 -177 -4 -177
-3 0 -38 15 -77 34 -189 90 -399 70 -528 -51 -181 -169 -174 -537 13 -684 73
-59 139 -78 261 -79 118 0 174 12 270 59 31 15 59 25 62 23 3 -3 5 -79 5 -168
0 -185 8 -169 -97 -205 -136 -47 -346 -61 -493 -33 -164 31 -256 79 -371 194
-71 69 -94 100 -127 170 -63 131 -75 192 -76 360 0 159 14 238 66 364 68 165
220 314 387 377 150 57 383 75 552 43z m-1303 -751 l2 -733 -210 0 -210 0 0
728 c0 401 3 732 7 736 4 3 97 5 207 4 l201 -3 3 -732z"/>
<path d="M1662 3412 c-9 -7 -12 -81 -10 -338 l3 -329 127 -3 c228 -5 338 41
405 171 25 48 27 61 27 167 0 105 -2 119 -26 166 -49 94 -126 143 -256 163
-82 13 -251 14 -270 3z"/>
<path d="M7016 3513 c-115 -340 -211 -623 -214 -630 -3 -9 24 -13 100 -15
l103 -3 3 -602 2 -603 215 0 215 0 0 605 0 605 106 0 c97 0 106 2 99 18 -6 15
-405 1196 -416 1230 -2 7 -98 -265 -213 -605z"/>
<path d="M7867 3754 c-10 -11 -8 -1126 3 -1301 11 -186 37 -297 97 -423 38
-79 59 -109 127 -176 113 -113 220 -165 411 -198 174 -31 413 -13 569 43 227
80 388 272 449 536 35 150 38 241 35 885 l-3 635 -217 3 -218 2 0 -657 c0
-722 -3 -759 -59 -878 -67 -141 -163 -195 -347 -195 -203 0 -311 78 -377 270
-21 64 -22 76 -27 760 l-5 695 -216 3 c-118 1 -218 -1 -222 -4z"/>
<path d="M10719 3157 c-42 -13 -99 -38 -126 -55 -49 -32 -148 -125 -165 -156
-20 -35 -29 -1 -27 97 l2 102 -214 0 -214 0 -3 -1072 -2 -1073 215 0 215 0 0
414 c0 242 4 417 9 421 5 3 22 -10 38 -29 31 -38 102 -95 149 -119 47 -24 158
-47 229 -47 91 0 197 25 285 67 110 52 224 170 285 296 72 149 89 238 89 452
-1 152 -4 192 -22 259 -62 225 -183 370 -365 434 -106 37 -272 41 -378 9z
m152 -335 c67 -29 125 -100 151 -186 17 -56 22 -96 22 -191 -1 -231 -65 -374
-198 -440 -42 -21 -64 -25 -138 -25 -74 0 -97 4 -137 24 -59 30 -106 82 -140
156 -24 50 -26 68 -29 205 -5 210 14 287 95 376 49 54 88 81 142 96 61 17 174
10 232 -15z"/>
</g>
</svg>
